PathFileType	4	(X/Y/Z)	 2.2Hzhigh3min.trc
DataRate	CameraRate	NumFrames	NumMarkers	Units	OrigDataRate	OrigDataStartFrame	OrigNumFrames
200	200	8	35	m	200	626	1000
Frame#	Time	C7			LSH			RSH			MAN			RASI			LASI			HIPR			HIPL			RPSI			LPSI			COX			RTHI1			RTHI2			RTHI3			RTHI4			RSHA1			RSHA2			RSHA3			RSHA4			RHEEL			RMET5			RMET1			RTOE			LTHI1			LTHI2			LTHI3			LTHI4			LSHA1			LSHA2			LSHA3			LSHA4			LHEEL			LMET5			LMET1			LTOE			
		X1	Y1	Z1	X2	Y2	Z2	X3	Y3	Z3	X4	Y4	Z4	X5	Y5	Z5	X6	Y6	Z6	X7	Y7	Z7	X8	Y8	Z8	X9	Y9	Z9	X10	Y10	Z10	X11	Y11	Z11	X12	Y12	Z12	X13	Y13	Z13	X14	Y14	Z14	X15	Y15	Z15	X16	Y16	Z16	X17	Y17	Z17	X18	Y18	Z18	X19	Y19	Z19	X20	Y20	Z20	X21	Y21	Z21	X22	Y22	Z22	X23	Y23	Z23	X24	Y24	Z24	X25	Y25	Z25	X26	Y26	Z26	X27	Y27	Z27	X28	Y28	Z28	X29	Y29	Z29	X30	Y30	Z30	X31	Y31	Z31	X32	Y32	Z32	X33	Y33	Z33	X34	Y34	Z34	X35	Y35	Z35	
626	3.1300	-0.370390	1.355727	-0.549547	-0.299295	1.318407	-0.723110	-0.317707	1.326892	-0.376910	-0.254218	1.303367	-0.548164	-0.247214	0.920333	-0.461301	-0.244841	0.928706	-0.640899	-0.314489	0.964986	-0.410815	-0.299822	0.978469	-0.675970	-0.396320	0.949143	-0.478895	-0.391861	0.960612	-0.594807	-0.399143	0.962678	-0.537418	-0.325689	0.744065	-0.375596	-0.317567	0.682600	-0.375070	-0.247083	0.699079	-0.388347	-0.263239	0.757273	-0.387815	-0.361699	0.319466	-0.357249	-0.383898	0.282581	-0.362038	-0.329167	0.258878	-0.374365	-0.312141	0.295527	-0.373429	-0.500333	0.101065	-0.417630	-0.359161	0.031962	-0.346816	-0.324644	0.032978	-0.423166	-0.300439	0.026060	-0.412127	-0.352211	0.707536	-0.710696	-0.345051	0.648648	-0.707363	-0.274163	0.657387	-0.718285	-0.288854	0.716730	-0.722105	-0.415816	0.299107	-0.713950	-0.433934	0.263347	-0.709132	-0.375080	0.241214	-0.709082	-0.364274	0.283478	-0.714868	-0.514732	0.101852	-0.657388	-0.377995	0.029227	-0.730776	-0.337653	0.034747	-0.662878	-0.316241	0.026356	-0.674755	
627	3.1350	-0.370627	1.361520	-0.549570	-0.299688	1.324162	-0.723156	-0.317739	1.332932	-0.377038	-0.254380	1.309263	-0.548318	-0.246673	0.926029	-0.461421	-0.244193	0.934441	-0.640563	-0.314110	0.970446	-0.410907	-0.299068	0.984274	-0.676109	-0.395546	0.954767	-0.479379	-0.390982	0.966245	-0.595216	-0.398397	0.968179	-0.537855	-0.324968	0.749844	-0.375649	-0.317239	0.688357	-0.374926	-0.246710	0.704353	-0.388798	-0.262520	0.762641	-0.388233	-0.362479	0.324058	-0.357003	-0.384296	0.286927	-0.361760	-0.329325	0.263765	-0.373950	-0.312661	0.300588	-0.373114	-0.498235	0.104838	-0.417276	-0.358491	0.032491	-0.346953	-0.324395	0.033070	-0.422882	-0.300421	0.026039	-0.412062	-0.351978	0.713675	-0.711729	-0.345283	0.654691	-0.708423	-0.274221	0.662929	-0.718585	-0.288458	0.722427	-0.722443	-0.416978	0.303459	-0.715042	-0.434590	0.267415	-0.710142	-0.375481	0.246071	-0.710396	-0.365209	0.288437	-0.716115	-0.512861	0.105707	-0.658603	-0.377443	0.029588	-0.730937	-0.337423	0.034920	-0.663445	-0.316207	0.026374	-0.674977	
628	3.1400	-0.370814	1.367610	-0.549581	-0.300099	1.330279	-0.723188	-0.317636	1.339228	-0.377268	-0.254522	1.315460	-0.548503	-0.246171	0.932137	-0.461604	-0.243584	0.940441	-0.640283	-0.313666	0.976468	-0.411127	-0.298225	0.990377	-0.676235	-0.394722	0.960774	-0.479909	-0.390062	0.972197	-0.595671	-0.397619	0.974022	-0.538338	-0.324157	0.755983	-0.375678	-0.316857	0.694468	-0.374776	-0.246301	0.709943	-0.389273	-0.261718	0.768331	-0.388686	-0.363290	0.328902	-0.356720	-0.384687	0.291519	-0.361422	-0.329451	0.268946	-0.373476	-0.313186	0.305953	-0.372758	-0.495861	0.108756	-0.416960	-0.357750	0.033073	-0.347105	-0.324121	0.033189	-0.422556	-0.300413	0.026045	-0.411987	-0.351785	0.720094	-0.712789	-0.345557	0.661009	-0.709539	-0.274334	0.668756	-0.718939	-0.288117	0.728403	-0.722807	-0.418127	0.308066	-0.716258	-0.435181	0.271698	-0.711257	-0.375803	0.251197	-0.711868	-0.366118	0.293677	-0.717511	-0.510750	0.109801	-0.659965	-0.376822	0.029991	-0.731133	-0.337161	0.035139	-0.664094	-0.316178	0.026403	-0.675257	
629	3.1450	-0.370955	1.373923	-0.549584	-0.300527	1.336674	-0.723211	-0.317429	1.345740	-0.377589	-0.254615	1.321897	-0.548734	-0.245714	0.938591	-0.461853	-0.243029	0.946682	-0.640089	-0.313124	0.983024	-0.411510	-0.297316	0.996764	-0.676302	-0.393858	0.967081	-0.480448	-0.389121	0.978398	-0.596144	-0.396815	0.980152	-0.538828	-0.323302	0.762426	-0.375707	-0.316471	0.700872	-0.374650	-0.245896	0.715791	-0.389762	-0.260881	0.774285	-0.389166	-0.364139	0.333945	-0.356414	-0.385076	0.296299	-0.361033	-0.329547	0.274372	-0.372944	-0.313749	0.311566	-0.372381	-0.493202	0.112764	-0.416709	-0.356958	0.033691	-0.347276	-0.323819	0.033340	-0.422197	-0.300412	0.026080	-0.411901	-0.351658	0.726754	-0.713838	-0.345905	0.667571	-0.710672	-0.274539	0.674812	-0.719356	-0.287856	0.734608	-0.723206	-0.419253	0.312872	-0.717569	-0.435697	0.276153	-0.712446	-0.376042	0.256553	-0.713479	-0.366992	0.299148	-0.719027	-0.508385	0.114115	-0.661455	-0.376127	0.030443	-0.731356	-0.336861	0.035409	-0.664809	-0.316151	0.026446	-0.675599	
630	3.1500	-0.371067	1.380411	-0.549591	-0.300971	1.343269	-0.723229	-0.317127	1.352426	-0.377918	-0.254726	1.328515	-0.548993	-0.245303	0.945312	-0.462168	-0.242533	0.953125	-0.639985	-0.312483	0.990042	-0.412062	-0.296379	1.003389	-0.676283	-0.392952	0.973610	-0.480975	-0.388179	0.984785	-0.596573	-0.395991	0.986507	-0.539305	-0.322461	0.769101	-0.375757	-0.316135	0.707504	-0.374569	-0.245543	0.721838	-0.390238	-0.260055	0.780434	-0.389654	-0.365048	0.339118	-0.356104	-0.385473	0.301192	-0.360625	-0.329629	0.279980	-0.372373	-0.314341	0.317369	-0.371932	-0.490312	0.116860	-0.416506	-0.356129	0.034337	-0.347473	-0.323483	0.033534	-0.421813	-0.300407	0.026142	-0.411792	-0.351611	0.733598	-0.714789	-0.346362	0.674344	-0.711784	-0.274876	0.681041	-0.719838	-0.287685	0.740974	-0.723614	-0.420332	0.317809	-0.718911	-0.436123	0.280735	-0.713684	-0.376187	0.262096	-0.715209	-0.367826	0.304817	-0.720642	-0.505750	0.118603	-0.663029	-0.375370	0.030936	-0.731594	-0.336511	0.035733	-0.665575	-0.316119	0.026509	-0.676003	
631	3.1550	-0.371156	1.387006	-0.549606	-0.301432	1.349982	-0.723248	-0.316765	1.359197	-0.378313	-0.254907	1.335239	-0.549268	-0.244926	0.952217	-0.462559	-0.242098	0.959727	-0.639972	-0.311762	0.997418	-0.412760	-0.295465	1.010218	-0.676182	-0.392007	0.980287	-0.481468	-0.387241	0.991292	-0.596963	-0.395150	0.993018	-0.539749	-0.321682	0.775964	-0.375843	-0.315893	0.714308	-0.374545	-0.245275	0.728010	-0.390676	-0.259274	0.786715	-0.390140	-0.366021	0.344372	-0.355810	-0.385897	0.306155	-0.360214	-0.329731	0.285716	-0.371767	-0.314995	0.323302	-0.371461	-0.487244	0.121022	-0.416364	-0.355279	0.035006	-0.347718	-0.323103	0.033786	-0.421419	-0.300386	0.026231	-0.411662	-0.351671	0.740575	-0.715607	-0.346966	0.681273	-0.712845	-0.275380	0.687390	-0.720396	-0.287636	0.747444	-0.724027	-0.421348	0.322835	-0.720260	-0.436450	0.285417	-0.714957	-0.376234	0.267788	-0.717040	-0.368621	0.310636	-0.722344	-0.502849	0.123262	-0.664702	-0.374551	0.031483	-0.731843	-0.336096	0.036127	-0.666376	-0.316074	0.026596	-0.676466	
632	3.1600	-0.371238	1.393648	-0.549642	-0.301900	1.356742	-0.723269	-0.316413	1.365940	-0.378873	-0.255101	1.342023	-0.549579	-0.244569	0.959223	-0.463029	-0.241717	0.966433	-0.640044	-0.310986	1.005013	-0.413567	-0.294639	1.017192	-0.676005	-0.391019	0.987052	-0.481920	-0.386315	0.997865	-0.597285	-0.394296	0.999627	-0.540140	-0.320993	0.782923	-0.375976	-0.315775	0.721222	-0.374548	-0.245111	0.734240	-0.391069	-0.258566	0.793058	-0.390611	-0.367069	0.349653	-0.355537	-0.386349	0.311136	-0.359799	-0.329850	0.291519	-0.371120	-0.315708	0.329319	-0.370958	-0.484007	0.125236	-0.416264	-0.354424	0.035706	-0.348024	-0.322653	0.034116	-0.421033	-0.300333	0.026331	-0.411501	-0.351853	0.747645	-0.716268	-0.347735	0.688317	-0.713834	-0.276068	0.693822	-0.721037	-0.287735	0.753975	-0.724433	-0.422288	0.327893	-0.721572	-0.436672	0.290159	-0.716249	-0.376191	0.273601	-0.718957	-0.369371	0.316571	-0.724112	-0.499688	0.128059	-0.666466	-0.373669	0.032102	-0.732103	-0.335597	0.036608	-0.667195	-0.316002	0.026709	-0.676982	
633	3.1650	-0.371323	1.400268	-0.549701	-0.302360	1.363480	-0.723295	-0.316092	1.372659	-0.379368	-0.255368	1.348783	-0.549919	-0.244225	0.966246	-0.463580	-0.241384	0.973186	-0.640197	-0.310171	1.012688	-0.414440	-0.293951	1.024246	-0.675774	-0.389995	0.993844	-0.482313	-0.385403	1.004440	-0.597538	-0.393437	1.006270	-0.540474	-0.320397	0.789922	-0.376156	-0.315782	0.728177	-0.374571	-0.245053	0.740471	-0.391407	-0.257939	0.799394	-0.391062	-0.368203	0.354910	-0.355293	-0.386832	0.316071	-0.359422	-0.329987	0.297345	-0.370436	-0.316484	0.335373	-0.370393	-0.480635	0.129511	-0.416185	-0.353570	0.036447	-0.348378	-0.322107	0.034549	-0.420676	-0.300230	0.026440	-0.411311	-0.352175	0.754768	-0.716753	-0.348652	0.695426	-0.714681	-0.276934	0.700272	-0.721745	-0.287994	0.760528	-0.724836	-0.423150	0.332941	-0.722837	-0.436793	0.294922	-0.717552	-0.376061	0.279488	-0.720932	-0.370074	0.322583	-0.725916	-0.496281	0.132995	-0.668311	-0.372699	0.032841	-0.732396	-0.334995	0.037201	-0.668017	-0.315882	0.026864	-0.677544	
